<svg xmlns="http://www.w3.org/2000/svg" viewBox="0 0 236.07 253.09"><defs><style>.cls-1{fill:#d2d7ed;}</style></defs><title>coin</title><g id="Layer_2" data-name="Layer 2"><g id="Layer_1-2" data-name="Layer 1"><path class="cls-1" d="M70.1,46.48c-5.32.75-8.67,3.9-10.36,8.88s-.26,9.15,3.14,12.86c3.24,3.51,7.49,3.94,11.92,3.93q29.22-.09,58.49-.07h19c13.67,0,27.33.12,41,0,10-.12,15.92-7.31,13.78-16.27-1.5-6.3-6.55-9.63-15-9.63H74.58A33.49,33.49,0,0,0,70.1,46.48Z"/><path class="cls-1" d="M41.1,154.08c-8.39.12-14.07,5.6-14,13S32.83,179.92,41.29,180c10.66.15,21.32.05,32,0a20,20,0,0,0,3.25-.51V154.08C64.69,154.08,52.89,154,41.1,154.08Z"/><path class="cls-1" d="M76.22,190.22c-12.31-.11-24.63-.12-36.94.07-5.33.08-9.06,3.07-11.13,7.89C24.33,207,30.65,215.86,41.07,216c14.48.21,29,.06,43.44.06l5.19,0C86.17,207.76,83,200,79.53,192.34A4.48,4.48,0,0,0,76.22,190.22Z"/><path class="cls-1" d="M41.24,108c16.65.2,33.31-.13,50,.16,6.23.11,11.09-1.21,16.1-5.56,14.32-12.49,31.5-18.69,50.58-20.25-1.81-.09-3.61-.25-5.42-.25H42.6a39.48,39.48,0,0,0-4.48.29,11.94,11.94,0,0,0-9.88,7.44C24.12,98.75,30.56,107.91,41.24,108Z"/><path class="cls-1" d="M80,142.29c3.75-7.83,7.26-15.81,11.06-24.14-16.79,0-33.71-.15-50.62.06-7.75.1-13.18,5.61-13.3,12.66-.13,7.25,5.38,13,13.35,13.12,12,.24,24,.13,35.92,0C77.61,144,79.51,143.24,80,142.29Z"/><path class="cls-1" d="M118.17,36.08c6.33,0,12.68.18,19-.31,6.88-.55,11.43-6.09,11.31-12.91-.14-7.94-5.75-12.71-15.28-12.72q-58.74-.06-117.48,0a35.22,35.22,0,0,0-4.48.28C5.92,11.14,2.53,14.23.8,19.21s-.69,10.06,3.52,13a21.48,21.48,0,0,0,11.39,3.7c19.46.37,39,.17,58.46.17Z"/><path class="cls-1" d="M236.07,167.83v-.44C235.87,126.44,202,93,160.89,93.13A75,75,0,0,0,86,168.26v.51c.23,40.93,34.16,74.45,75.22,74.23A75,75,0,0,0,236.07,167.83Zm-96.71,56.71c-1.84,3.32-5,3.35-7.73,1.43-6-4.16-12.41-8-17.48-13.08-18.92-19.09-23.48-49.16-11.56-73,1.07-2.13,3.11-3.79,4.11-5,5.33.13,6.75,3.84,5.47,8.2-2.33,7.9-5.64,15.92-5.82,23.95-.49,21.74,9.62,38.18,28.34,49.28.57.33,1.17.61,1.76.92C139.53,218.85,141.2,221.22,139.36,224.54Zm18.7,3.81c-.15,1.67-2.78,4-4.67,4.41a4,4,0,0,1-4.94-2.76,4.11,4.11,0,0,1-.06-1.91c.3-2.05,2.58-3.8,4-5.69l2.35.06C156,224.46,158.23,226.46,158.06,228.35ZM173.71,108c-.25,2-2.47,3.87-3.81,5.79h-2.36c-1.27-1.94-3.61-4-3.49-5.79s2.68-4.09,4.56-4.55a4.08,4.08,0,0,1,5.1,4.55Zm36.43,84.88c14.52-28.9.79-61.48-24.26-73.81-3.06-1.51-5-3.82-3.23-7.18,1.85-3.58,4.91-3.3,8.11-1.56,23,12.45,34.18,32.07,35.39,55.26-.19,12.72-2.41,22.33-6.89,31.44-1.6,3.23-3.75,5.4-7.43,3.53C208.47,198.83,208.58,196,210.14,192.85Z"/><path class="cls-1" d="M71.94,0h0Z"/><path class="cls-1" d="M163.31,253H156.6Q159.92,253.16,163.31,253Z"/></g></g></svg>