<svg xmlns="http://www.w3.org/2000/svg" viewBox="0 0 190 108.91"><defs><style>.cls-1{isolation:isolate;}.cls-2,.cls-4{fill:#d2d7f0;}.cls-4{mix-blend-mode:multiply;}</style></defs><title>Asset 18</title><g class="cls-1"><g id="Layer_2" data-name="Layer 2"><g id="Layer_1-2" data-name="Layer 1"><path class="cls-2" d="M94.41,27.35A27.11,27.11,0,0,0,68.49,46.53c12,.89,20.92,4.34,20.92,8.45s-8.76,7.5-20.58,8.43A27.1,27.1,0,1,0,94.41,27.35Z"/><path class="cls-3" d="M94.37,108.91h0Z"/><path class="cls-3" d="M94.37,0h0Z"/><path class="cls-2" d="M95.23,0h-.46C64.55.35,36.09,14.13,0,54.46c0,0,35,53.11,94.77,54.43h.46C155,107.57,190,54.46,190,54.46,153.91,14.13,125.45.35,95.23,0ZM94,92.14a37.5,37.5,0,1,1,37.5-37.5A37.5,37.5,0,0,1,94,92.14Z"/><path class="cls-3" d="M94.57,0h0Z"/><path class="cls-3" d="M94.77,108.91h0Z"/><path class="cls-4" d="M94.41,27.35A27.11,27.11,0,0,0,68.49,46.53c12,.89,20.92,4.34,20.92,8.45s-8.76,7.5-20.58,8.43A27.1,27.1,0,1,0,94.41,27.35Z"/></g></g></g></svg>