<svg xmlns="http://www.w3.org/2000/svg" viewBox="0 0 189.83 173.38"><defs><style>.cls-1{isolation:isolate;}.cls-2,.cls-3{fill:#d2d7f0;}.cls-2{mix-blend-mode:multiply;}</style></defs><title>Asset 15</title><g class="cls-1"><g id="Layer_2" data-name="Layer 2"><g id="Layer_1-2" data-name="Layer 1"><circle class="cls-2" cx="94.91" cy="36.71" r="36.71"/><path class="cls-2" d="M113.53,77.34l-10.86,2A40.86,40.86,0,0,1,88,79.44l-11.67-2.1c-14,1.47-23.65,7.35-30.31,14.12a49.08,49.08,0,0,0-13.79,34.47V162.6c7.42,4.24,25.16,7.33,39.88,9.28a174.71,174.71,0,0,0,45.69,0c14.72-1.95,32.46-5,39.88-9.28V125.93a49.08,49.08,0,0,0-13.79-34.47C137.19,84.69,127.5,78.81,113.53,77.34Z"/><circle class="cls-3" cx="142.49" cy="49.11" r="27.71"/><path class="cls-3" d="M156.54,79.77l-8.2,1.55a30.73,30.73,0,0,1-11.11,0l-8.8-1.59c-10.54,1.11-17.86,5.55-22.88,10.67a37,37,0,0,0-10.41,26v27.68c5.6,3.2,19,5.54,30.1,7a131.86,131.86,0,0,0,34.49,0c11.12-1.47,24.5-3.81,30.1-7V116.45a37,37,0,0,0-10.4-26C174.4,85.32,167.08,80.88,156.54,79.77Z"/><circle class="cls-3" cx="47.34" cy="49.11" r="27.71"/><path class="cls-3" d="M61.4,79.77l-8.2,1.55a30.73,30.73,0,0,1-11.11,0l-8.8-1.59C22.75,80.88,15.43,85.32,10.4,90.44a37,37,0,0,0-10.4,26v27.68c5.6,3.2,19,5.54,30.1,7a131.86,131.86,0,0,0,34.49,0c11.11-1.47,24.5-3.81,30.1-7V116.45a37,37,0,0,0-10.41-26C79.26,85.32,71.94,80.88,61.4,79.77Z"/><circle class="cls-2" cx="94.91" cy="36.71" r="36.71"/><path class="cls-2" d="M113.53,77.34l-10.86,2A40.86,40.86,0,0,1,88,79.44l-11.67-2.1c-14,1.47-23.65,7.35-30.31,14.12a49.08,49.08,0,0,0-13.79,34.47V162.6c7.42,4.24,25.16,7.33,39.88,9.28a174.71,174.71,0,0,0,45.69,0c14.72-1.95,32.46-5,39.88-9.28V125.93a49.08,49.08,0,0,0-13.79-34.47C137.19,84.69,127.5,78.81,113.53,77.34Z"/></g></g></g></svg>