<svg xmlns="http://www.w3.org/2000/svg" viewBox="0 0 245.23 256.11"><defs><style>.cls-1{fill:#d2d7ed;}</style></defs><title>weight</title><g id="Layer_2" data-name="Layer 2"><g id="Layer_1-2" data-name="Layer 1"><path class="cls-1" d="M81.06,70.07C72,41,76.45,22.3,95.4,8.63a46.94,46.94,0,0,1,53.84-.28C168.35,21.79,172.77,40.08,164,70.07h29c17.54,0,27,7.5,30.08,24.83,5.41,30.78,10.37,61.65,15.5,92.48q3.21,19.19,6.35,38.39a26,26,0,0,1-25.9,30.3c-29.67.08-59.33,0-89,0q-50.49,0-101,0c-20.62,0-31.78-13-28.37-33.83Q11.18,157.54,22.39,92.9C24.85,78.6,35.05,70.24,49.6,70.09,60,70,70.48,70.07,81.06,70.07Zm41.23-3.76A19.36,19.36,0,0,0,142,46.84a19.5,19.5,0,1,0-39,.09A19.35,19.35,0,0,0,122.29,66.31Z"/></g></g></svg>