<?xml version="1.0" encoding="UTF-8"?>
<!DOCTYPE svg PUBLIC "-//W3C//DTD SVG 1.1//EN" "http://www.w3.org/Graphics/SVG/1.1/DTD/svg11.dtd">
<svg fill="#FFFFFF" xmlns="http://www.w3.org/2000/svg" version="1.1" width="225px" height="225px" style="shape-rendering:geometricPrecision; text-rendering:geometricPrecision; image-rendering:optimizeQuality; fill-rule:evenodd; clip-rule:evenodd" xmlns:xlink="http://www.w3.org/1999/xlink">
<g><path style="opacity:1" fill="#202631" d="M -0.5,-0.5 C 74.5,-0.5 149.5,-0.5 224.5,-0.5C 224.5,74.5 224.5,149.5 224.5,224.5C 149.5,224.5 74.5,224.5 -0.5,224.5C -0.5,149.5 -0.5,74.5 -0.5,-0.5 Z"/></g>
<g><path style="opacity:1" d="M 22.5,45.5 C 35.2174,63.407 49.7174,80.0737 66,95.5C 69.7565,113.533 78.9232,128.033 93.5,139C 75.2418,161.079 53.9085,164.413 29.5,149C 41.5201,145.324 53.1867,140.658 64.5,135C 35.5746,135.48 17.0746,121.98 9,94.5C 22.0661,101.854 35.8995,107.02 50.5,110C 27.6672,94.4892 18.3338,72.9892 22.5,45.5 Z"/></g>
<g><path style="opacity:1" d="M 199.5,45.5 C 205.26,73.15 196.26,94.65 172.5,110C 186.679,106.925 200.346,102.091 213.5,95.5C 208.92,115.25 196.586,127.75 176.5,133C 170.87,133.966 165.204,134.633 159.5,135C 170.609,141.037 182.276,145.704 194.5,149C 181.095,157.55 166.762,159.884 151.5,156C 142.848,152.505 135.848,147.005 130.5,139.5C 144.457,127.939 153.624,113.272 158,95.5C 174.308,80.7101 188.141,64.0434 199.5,45.5 Z"/></g>
<g><path style="opacity:1" d="M 97.5,56.5 C 108.544,56.1811 119.544,56.6811 130.5,58C 137.334,59.4948 143.501,62.3282 149,66.5C 149.667,67.8333 150.333,69.1667 151,70.5C 152.126,93.1304 144.959,112.63 129.5,129C 126.661,130.92 123.661,132.587 120.5,134C 120.436,144.495 123.269,154.328 129,163.5C 133.387,167.887 137.721,172.221 142,176.5C 142.72,178.112 142.554,179.612 141.5,181C 128.506,186.997 114.839,188.997 100.5,187C 92.4289,186.869 85.4289,184.203 79.5,179C 85.2975,173.533 90.7975,167.7 96,161.5C 100.032,153.405 102.865,144.905 104.5,136C 85.5236,124.248 75.0236,107.081 73,84.5C 72.3333,79.5 72.3333,74.5 73,69.5C 74.1217,67.3762 75.6217,65.5429 77.5,64C 83.8779,60.3787 90.5446,57.8787 97.5,56.5 Z"/></g>
<g><path style="opacity:1" fill="#202631" d="M 97.5,64.5 C 106.839,64.3335 116.173,64.5002 125.5,65C 130.668,66.2075 135.668,67.8741 140.5,70C 143.859,72.0342 144.192,74.3676 141.5,77C 135.693,80.6292 129.36,82.6292 122.5,83C 112.788,83.8241 103.121,83.4907 93.5,82C 87.696,80.936 83.0293,78.1027 79.5,73.5C 84.7471,68.8764 90.7471,65.8764 97.5,64.5 Z"/></g>
</svg>
