<?xml version="1.0" encoding="UTF-8"?>
<!DOCTYPE svg PUBLIC "-//W3C//DTD SVG 1.1//EN" "http://www.w3.org/Graphics/SVG/1.1/DTD/svg11.dtd">
<svg fill="#FFFFFF" xmlns="http://www.w3.org/2000/svg" version="1.1" width="225px" height="225px" style="shape-rendering:geometricPrecision; text-rendering:geometricPrecision; image-rendering:optimizeQuality; fill-rule:evenodd; clip-rule:evenodd" xmlns:xlink="http://www.w3.org/1999/xlink">
<g><path style="opacity:0" fill="#202631" d="M -0.5,-0.5 C 74.5,-0.5 149.5,-0.5 224.5,-0.5C 224.5,74.5 224.5,149.5 224.5,224.5C 149.5,224.5 74.5,224.5 -0.5,224.5C -0.5,149.5 -0.5,74.5 -0.5,-0.5 Z"/></g>
<g><path style="opacity:1" d="M 97.5,44.5 C 100.167,44.5 102.833,44.5 105.5,44.5C 105.5,46.8333 105.5,49.1667 105.5,51.5C 93.7782,51.7726 83.1115,55.4393 73.5,62.5C 79.1667,63.1667 84.8333,63.8333 90.5,64.5C 107.383,83.7607 124.383,102.927 141.5,122C 129.609,123.259 117.942,125.259 106.5,128C 100.333,122.5 94.1667,117 88,111.5C 85.6954,98.5368 83.5287,85.5368 81.5,72.5C 75.6991,78.4672 70.8657,85.1339 67,92.5C 66,91.8333 65,91.1667 64,90.5C 63.8299,84.8042 63.3299,79.1376 62.5,73.5C 54.6451,83.0647 50.9784,94.0647 51.5,106.5C 48.8333,106.5 46.1667,106.5 43.5,106.5C 43.4183,92.1662 47.7516,79.3328 56.5,68C 43.2637,59.2642 32.597,48.0976 24.5,34.5C 12.087,38.9193 6.58697,34.586 8,21.5C 12.6893,10.2393 20.8559,6.07265 32.5,9C 37.1183,13.5589 37.785,18.7255 34.5,24.5C 48.0976,32.597 59.2642,43.2637 68,56.5C 76.7384,49.8636 86.5717,45.8636 97.5,44.5 Z"/></g>
<g><path style="opacity:1" d="M 166.5,8.5 C 176.326,11.5463 185.659,15.5463 194.5,20.5C 191.901,28.4641 189.401,36.4641 187,44.5C 181.582,41.207 176.082,38.0403 170.5,35C 169.365,34.2506 168.365,34.4173 167.5,35.5C 163.766,42.6106 160.932,49.9439 159,57.5C 165.419,61.2933 171.919,64.96 178.5,68.5C 180.069,67.286 180.902,65.6193 181,63.5C 183.197,57.2435 181.03,54.2435 174.5,54.5C 174.657,55.8734 174.49,57.2068 174,58.5C 167.207,55.122 166.707,50.7886 172.5,45.5C 179.021,48.2551 185.021,51.7551 190.5,56C 187.985,62.7101 185.985,69.5434 184.5,76.5C 175.152,74.7323 165.985,72.399 157,69.5C 153.091,57.3682 149.258,45.2015 145.5,33C 152.322,24.678 159.322,16.5113 166.5,8.5 Z"/></g>
<g><path style="opacity:1" d="M 87.5,14.5 C 88.5862,14.62 89.2528,15.2867 89.5,16.5C 91.6455,23.6033 93.9789,30.6033 96.5,37.5C 86.8989,38.2004 78.0655,41.2004 70,46.5C 69.3076,45.9747 68.8076,45.3081 68.5,44.5C 73.2798,33.4134 79.6131,23.4134 87.5,14.5 Z"/></g>
<g><path style="opacity:1" d="M 144.5,15.5 C 146.199,15.3398 147.866,15.5065 149.5,16C 144.974,21.6923 140.641,27.5257 136.5,33.5C 141.777,47.9953 146.443,62.662 150.5,77.5C 162.696,80.2571 174.862,83.2571 187,86.5C 187.945,86.0946 188.612,85.428 189,84.5C 192.298,73.6048 195.798,62.7714 199.5,52C 198.396,50.1796 196.896,48.6796 195,47.5C 194.442,44.9462 195.275,42.9462 197.5,41.5C 203.593,43.9748 209.593,46.6414 215.5,49.5C 212.045,63.87 208.378,78.2034 204.5,92.5C 187.633,94.886 170.799,97.2193 154,99.5C 143,87.1667 132,74.8333 121,62.5C 122.825,48.2052 124.659,33.8719 126.5,19.5C 132.755,18.7848 138.755,17.4515 144.5,15.5 Z"/></g>
<g><path style="opacity:1" d="M 97.5,44.5 C 100.287,43.5233 103.287,43.19 106.5,43.5C 106.806,46.3854 106.473,49.0521 105.5,51.5C 105.5,49.1667 105.5,46.8333 105.5,44.5C 102.833,44.5 100.167,44.5 97.5,44.5 Z"/></g>
<g><path style="opacity:1" d="M 96.5,59.5 C 100.437,59.2065 104.27,59.5399 108,60.5C 110.879,66.2306 112.546,72.2306 113,78.5C 107.268,72.2752 101.768,65.9418 96.5,59.5 Z"/></g>
<g><path style="opacity:1" d="M 127.5,82.5 C 129.867,83.8708 131.533,85.8708 132.5,88.5C 131.737,89.7193 130.737,90.7193 129.5,91.5C 131.681,94.9317 134.681,97.4317 138.5,99C 143.754,100.647 149.087,101.98 154.5,103C 149.105,105.977 143.438,107.144 137.5,106.5C 132.353,100.186 127.02,94.0191 121.5,88C 123.396,85.932 125.396,84.0987 127.5,82.5 Z"/></g>
<g><path style="opacity:1" d="M 75.5,94.5 C 77.2323,105.617 80.0657,116.617 84,127.5C 85.6837,129.351 87.5171,131.018 89.5,132.5C 90.8153,130.231 91.9819,127.898 93,125.5C 95.0353,127.24 96.8686,129.074 98.5,131C 91.8333,146.667 85.1667,162.333 78.5,178C 79.4872,180.321 81.1539,181.987 83.5,183C 89.0083,184.851 94.675,185.851 100.5,186C 89.024,193.938 76.3573,198.938 62.5,201C 57.3441,205.414 51.6775,209.081 45.5,212C 30.9319,217.918 19.4319,214.418 11,201.5C 8.20663,195.286 7.8733,188.952 10,182.5C 14.3857,171.122 21.8857,162.622 32.5,157C 48.8528,153.688 55.6861,160.188 53,176.5C 51.7441,180.016 49.7441,183.016 47,185.5C 44.9824,183.65 43.1491,181.65 41.5,179.5C 45.2748,176.341 46.7748,172.341 46,167.5C 44.7019,164.767 42.5353,163.434 39.5,163.5C 26.2528,167.92 18.5862,177.087 16.5,191C 18.9629,203.742 26.6295,208.742 39.5,206C 48.7719,202.068 56.2719,195.901 62,187.5C 68.4674,177.403 74.3007,166.903 79.5,156C 76.527,151.615 74.6937,146.782 74,141.5C 70.5668,125.702 71.0668,110.035 75.5,94.5 Z"/></g>
<g><path style="opacity:1" d="M 160.5,128.5 C 171.749,132.027 183.082,135.36 194.5,138.5C 189.273,143.692 183.44,148.025 177,151.5C 170.484,145.495 164.651,138.828 159.5,131.5C 160.127,130.583 160.461,129.583 160.5,128.5 Z"/></g>
<g><path style="opacity:1" d="M 148.5,128.5 C 149.873,128.343 151.207,128.51 152.5,129C 148.941,141.139 141.608,150.139 130.5,156C 116.464,159.073 108.297,153.573 106,139.5C 108.251,137.623 110.751,136.123 113.5,135C 125.329,132.937 136.996,130.77 148.5,128.5 Z"/></g>
<g><path style="opacity:1" d="M 156.5,140.5 C 176.943,163.447 196.11,187.447 214,212.5C 214.688,213.332 214.521,213.998 213.5,214.5C 189.614,197.119 166.448,178.785 144,159.5C 143.333,158.833 143.333,158.167 144,157.5C 149.157,152.517 153.323,146.851 156.5,140.5 Z"/></g>
</svg>
