<?xml version="1.0" encoding="UTF-8"?>
<!DOCTYPE svg PUBLIC "-//W3C//DTD SVG 1.1//EN" "http://www.w3.org/Graphics/SVG/1.1/DTD/svg11.dtd">
<svg xmlns="http://www.w3.org/2000/svg" version="1.1" width="225px" height="225px" style="shape-rendering:geometricPrecision; text-rendering:geometricPrecision; image-rendering:optimizeQuality; fill-rule:evenodd; clip-rule:evenodd" xmlns:xlink="http://www.w3.org/1999/xlink">
<g><path style="opacity:1" fill="#202631" d="M -0.5,-0.5 C 74.5,-0.5 149.5,-0.5 224.5,-0.5C 224.5,74.5 224.5,149.5 224.5,224.5C 149.5,224.5 74.5,224.5 -0.5,224.5C -0.5,149.5 -0.5,74.5 -0.5,-0.5 Z"/></g>
<g><path style="opacity:1" fill="#FFFFFF" d="M 36.5,53.5 C 61.5177,56.3921 86.5177,59.3921 111.5,62.5C 115.5,62.3333 119.5,62.1667 123.5,62C 142.426,58.5809 161.426,55.7476 180.5,53.5C 199.331,52.6467 210.831,61.3134 215,79.5C 215.667,91.8333 215.667,104.167 215,116.5C 212.941,133.464 205.108,146.964 191.5,157C 178.879,163.805 166.212,164.138 153.5,158C 143.142,146.643 132.475,135.643 121.5,125C 117.278,121.889 112.611,120.889 107.5,122C 98.0451,127.788 90.2117,135.288 84,144.5C 78.8017,150.033 73.3017,155.2 67.5,160C 43.0118,166.339 25.1785,158.172 14,135.5C 11.7228,129.668 10.0561,123.668 9,117.5C 8.33333,105.833 8.33333,94.1667 9,82.5C 11.0125,65.6668 20.1792,56.0001 36.5,53.5 Z"/></g>
<g><path style="opacity:1" fill="#202631" d="M 51.5,79.5 C 66.0617,78.0518 78.395,82.5518 88.5,93C 73.102,110.525 55.7687,112.859 36.5,100C 34.3368,98.0016 32.6702,95.6682 31.5,93C 37.0275,86.7418 43.6941,82.2418 51.5,79.5 Z"/></g>
<g><path style="opacity:1" fill="#202631" d="M 154.5,79.5 C 169.109,77.699 181.109,82.3657 190.5,93.5C 180.728,105.949 168.062,110.449 152.5,107C 144.734,104.228 138.401,99.5615 133.5,93C 139.621,87.0287 146.621,82.5287 154.5,79.5 Z"/></g>
</svg>
