<?xml version="1.0" encoding="UTF-8"?>
<!DOCTYPE svg PUBLIC "-//W3C//DTD SVG 1.1//EN" "http://www.w3.org/Graphics/SVG/1.1/DTD/svg11.dtd">
<svg fill="#FFFFFF" xmlns="http://www.w3.org/2000/svg" version="1.1" width="225px" height="225px" style="shape-rendering:geometricPrecision; text-rendering:geometricPrecision; image-rendering:optimizeQuality; fill-rule:evenodd; clip-rule:evenodd" xmlns:xlink="http://www.w3.org/1999/xlink">
<g><path style="opacity:1" fill="#202631" d="M -0.5,-0.5 C 74.5,-0.5 149.5,-0.5 224.5,-0.5C 224.5,74.5 224.5,149.5 224.5,224.5C 149.5,224.5 74.5,224.5 -0.5,224.5C -0.5,149.5 -0.5,74.5 -0.5,-0.5 Z"/></g>
<g><path style="opacity:1" d="M 158.5,32.5 C 116.362,13.6645 79.1955,20.6645 47,53.5C 21.6942,86.4847 18.6942,121.485 38,158.5C 41.5696,163.015 44.5696,167.682 47,172.5C 22.1935,154.059 9.36016,129.225 8.5,98C 11.5342,57.3172 31.8675,29.3172 69.5,14C 95.9711,5.93308 121.304,8.59975 145.5,22C 150.311,24.9849 154.644,28.4849 158.5,32.5 Z"/></g>
<g><path style="opacity:1" fill="#202631" d="M 158.5,32.5 C 159.756,32.4614 160.756,32.9614 161.5,34C 160.002,34.5847 159.002,34.0847 158.5,32.5 Z"/></g>
<g><path style="opacity:1" d="M 108.5,39.5 C 135.68,38.6748 156.18,50.0082 170,73.5C 184.273,98.1446 183.939,122.478 169,146.5C 176.512,115.038 167.678,89.2045 142.5,69C 131.979,62.3569 120.979,60.8569 109.5,64.5C 110.785,67.0205 111.452,69.6872 111.5,72.5C 129.038,71.6859 142.538,78.6859 152,93.5C 163.014,111.05 165.347,129.717 159,149.5C 156.997,154.846 153.997,159.513 150,163.5C 150.554,159.147 151.554,154.814 153,150.5C 156.393,129.184 150.226,111.351 134.5,97C 129.184,93.0032 123.184,91.1698 116.5,91.5C 119.39,115.565 118.89,139.565 115,163.5C 110.341,171.298 103.341,174.965 94,174.5C 76.9532,173.086 63.6198,165.419 54,151.5C 46.3582,133.839 52.0248,124.172 71,122.5C 86.8886,122.944 99.8886,129.278 110,141.5C 113.347,108.244 107.847,76.5775 93.5,46.5C 98.1363,43.1868 103.136,40.8535 108.5,39.5 Z"/></g>
<g><path style="opacity:1" d="M 171.5,47.5 C 171.56,46.9569 171.893,46.6236 172.5,46.5C 209.141,72.574 221.974,107.574 211,151.5C 193.307,195.113 160.807,215.613 113.5,213C 94.9599,209.895 78.6266,202.228 64.5,190C 100.974,207.144 135.307,203.477 167.5,179C 197.96,149.323 205.793,114.489 191,74.5C 186.438,64.0184 179.938,55.0184 171.5,47.5 Z"/></g>
</svg>
