<?xml version="1.0" encoding="UTF-8"?>
<!DOCTYPE svg PUBLIC "-//W3C//DTD SVG 1.1//EN" "http://www.w3.org/Graphics/SVG/1.1/DTD/svg11.dtd">
<svg fill="#FFFFFF" xmlns="http://www.w3.org/2000/svg" version="1.1" width="225px" height="225px" style="shape-rendering:geometricPrecision; text-rendering:geometricPrecision; image-rendering:optimizeQuality; fill-rule:evenodd; clip-rule:evenodd" xmlns:xlink="http://www.w3.org/1999/xlink">
<g><path style="opacity:1" fill="#202631" d="M -0.5,-0.5 C 74.5,-0.5 149.5,-0.5 224.5,-0.5C 224.5,74.5 224.5,149.5 224.5,224.5C 149.5,224.5 74.5,224.5 -0.5,224.5C -0.5,149.5 -0.5,74.5 -0.5,-0.5 Z"/></g>
<g><path style="opacity:1" d="M 197.5,8.5 C 204.669,7.51306 208.169,10.5131 208,17.5C 204.797,22.9163 200.464,23.9163 195,20.5C 192.523,15.6692 193.356,11.6692 197.5,8.5 Z"/></g>
<g><path style="opacity:1" d="M 190.5,85.5 C 184.158,85.3338 177.825,85.5005 171.5,86C 172.044,86.7172 172.711,87.2172 173.5,87.5C 179.13,93.6314 184.964,99.6314 191,105.5C 192.262,110.787 192.596,116.12 192,121.5C 185.581,109.761 175.748,102.594 162.5,100C 153.5,99.3333 144.5,99.3333 135.5,100C 114.996,103.567 94.6631,107.901 74.5,113C 58.4766,116.19 42.4766,116.19 26.5,113C 22.1718,111.171 18.1718,108.838 14.5,106C 26.0907,106.111 36.0907,102.278 44.5,94.5C 34.7599,88.9225 25.4266,82.7558 16.5,76C 11.5335,71.7503 8.36687,66.5836 7,60.5C 24.6891,77.2539 44.5224,80.4205 66.5,70C 81.0085,61.1593 94.6752,51.1593 107.5,40C 119.217,30.9742 132.217,24.3076 146.5,20C 159.136,16.8295 171.802,16.8295 184.5,20C 186.25,21.7542 186.917,23.9208 186.5,26.5C 179.383,26.4314 172.383,27.2647 165.5,29C 172.5,32.1667 179.5,35.3333 186.5,38.5C 187.452,40.0453 187.785,41.712 187.5,43.5C 180.707,44.1918 174.041,45.5252 167.5,47.5C 173.846,51.6744 180.512,55.341 187.5,58.5C 188.466,60.396 188.799,62.396 188.5,64.5C 181.731,64.8461 175.064,65.8461 168.5,67.5C 175.366,72.1971 182.366,76.6971 189.5,81C 190.38,82.3561 190.714,83.8561 190.5,85.5 Z"/></g>
<g><path style="opacity:1" d="M 205.5,40.5 C 204.523,37.7131 204.19,34.7131 204.5,31.5C 202.167,31.5 199.833,31.5 197.5,31.5C 197.5,34.1667 197.5,36.8333 197.5,39.5C 196.523,36.7131 196.19,33.7131 196.5,30.5C 199.5,30.5 202.5,30.5 205.5,30.5C 205.5,33.8333 205.5,37.1667 205.5,40.5 Z"/></g>
<g><path style="opacity:1" d="M 205.5,40.5 C 207.818,99.8512 210.485,159.184 213.5,218.5C 210.833,218.5 208.167,218.5 205.5,218.5C 202.553,158.846 199.887,99.1791 197.5,39.5C 197.5,36.8333 197.5,34.1667 197.5,31.5C 199.833,31.5 202.167,31.5 204.5,31.5C 204.19,34.7131 204.523,37.7131 205.5,40.5 Z"/></g>
<g><path style="opacity:1" fill="#202631" d="M 190.5,85.5 C 184.833,86.1667 179.167,86.8333 173.5,87.5C 172.711,87.2172 172.044,86.7172 171.5,86C 177.825,85.5005 184.158,85.3338 190.5,85.5 Z"/></g>
<g><path style="opacity:1" d="M 147.5,215.5 C 144.615,215.806 141.948,215.473 139.5,214.5C 141.335,200.487 143.335,186.487 145.5,172.5C 143.612,167.411 140.612,162.911 136.5,159C 142.542,149.082 148.708,139.249 155,129.5C 159.182,139.546 162.682,149.879 165.5,160.5C 165.333,161.167 165.167,161.833 165,162.5C 160.968,165.705 157.135,169.038 153.5,172.5C 150.956,186.765 148.956,201.098 147.5,215.5 Z"/></g>
<g><path style="opacity:1" d="M 91.5,198.5 C 91.5,204.167 91.5,209.833 91.5,215.5C 89.1667,215.5 86.8333,215.5 84.5,215.5C 84.8229,209.31 84.4896,203.31 83.5,197.5C 83.6663,190.159 83.4997,182.826 83,175.5C 79.7829,172.62 76.9495,169.453 74.5,166C 78.2715,156.294 82.4381,146.794 87,137.5C 91.3611,146.917 95.5277,156.417 99.5,166C 97.3851,169.118 94.8851,171.952 92,174.5C 91.5003,182.493 91.3336,190.493 91.5,198.5 Z"/></g>
<g><path style="opacity:1" d="M 16.5,139.5 C 22.1987,146.524 27.1987,154.191 31.5,162.5C 28.1601,165.653 26.4934,169.486 26.5,174C 28.3625,187.538 30.3625,201.038 32.5,214.5C 29.3553,215.995 26.5219,215.662 24,213.5C 22.1867,199.474 20.1867,185.474 18,171.5C 14.9956,169.661 12.4956,167.327 10.5,164.5C 12.5058,156.153 14.5058,147.82 16.5,139.5 Z"/></g>
<g><path style="opacity:1" d="M 55.5,207.5 C 54.5269,209.948 54.1936,212.615 54.5,215.5C 51.8333,215.5 49.1667,215.5 46.5,215.5C 47.8231,201.508 48.6564,187.508 49,173.5C 46.6496,171.317 44.483,168.984 42.5,166.5C 46.9368,158.626 51.1034,150.626 55,142.5C 58.0144,150.89 61.181,159.224 64.5,167.5C 62.8099,170.024 60.6432,172.024 58,173.5C 56.1736,184.736 55.3402,196.069 55.5,207.5 Z"/></g>
<g><path style="opacity:1" d="M 177.5,157.5 C 178.496,157.414 179.329,157.748 180,158.5C 184.7,166.372 189.2,174.372 193.5,182.5C 191.862,185.304 190.029,187.971 188,190.5C 187.789,198.865 188.289,207.198 189.5,215.5C 186.833,215.5 184.167,215.5 181.5,215.5C 181.063,207.795 180.229,200.128 179,192.5C 175.785,190.329 172.952,187.829 170.5,185C 173.151,175.914 175.484,166.747 177.5,157.5 Z"/></g>
<g><path style="opacity:1" d="M 114.5,156.5 C 120.31,164.768 125.643,173.435 130.5,182.5C 127.282,186.036 124.949,190.036 123.5,194.5C 124.332,201.489 124.999,208.489 125.5,215.5C 122.833,215.5 120.167,215.5 117.5,215.5C 117.289,207.768 116.456,200.101 115,192.5C 112.075,190.286 109.241,187.953 106.5,185.5C 109.58,175.931 112.246,166.264 114.5,156.5 Z"/></g>
<g><path style="opacity:1" fill="#202631" d="M 83.5,197.5 C 84.4896,203.31 84.8229,209.31 84.5,215.5C 86.8333,215.5 89.1667,215.5 91.5,215.5C 91.5,209.833 91.5,204.167 91.5,198.5C 92.4896,204.31 92.8229,210.31 92.5,216.5C 89.5,216.5 86.5,216.5 83.5,216.5C 83.5,210.167 83.5,203.833 83.5,197.5 Z"/></g>
<g><path style="opacity:1" fill="#202631" d="M 55.5,207.5 C 55.5,210.5 55.5,213.5 55.5,216.5C 52.2869,216.81 49.2869,216.477 46.5,215.5C 49.1667,215.5 51.8333,215.5 54.5,215.5C 54.1936,212.615 54.5269,209.948 55.5,207.5 Z"/></g>
<g><path style="opacity:1" fill="#202631" d="M 139.5,214.5 C 141.948,215.473 144.615,215.806 147.5,215.5C 144.645,216.803 141.645,216.803 138.5,215.5C 138.624,214.893 138.957,214.56 139.5,214.5 Z"/></g>
</svg>
