<?xml version="1.0" standalone="no"?>
<!DOCTYPE svg PUBLIC "-//W3C//DTD SVG 20010904//EN"
 "http://www.w3.org/TR/2001/REC-SVG-20010904/DTD/svg10.dtd">
<svg version="1.0" xmlns="http://www.w3.org/2000/svg"
 width="225.000000pt" height="225.000000pt" viewBox="0 0 225.000000 225.000000"
 preserveAspectRatio="xMidYMid meet">

<g transform="translate(0.000000,225.000000) scale(0.100000,-0.100000)"
fill="#FFFFFF" stroke="none">
<path d="M570 1415 l0 -325 623 2 622 3 3 323 2 322 -625 0 -625 0 0 -325z"/>
<path d="M85 1628 c16 -53 93 -167 155 -227 65 -65 138 -115 213 -146 l37 -15
0 205 0 205 -206 0 -205 0 6 -22z"/>
<path d="M1900 1399 l0 -191 48 28 c70 40 132 87 181 138 51 52 52 51 -43 123
-60 45 -149 93 -173 93 -10 0 -13 -45 -13 -191z"/>
<path d="M893 993 c-41 -120 -154 -314 -217 -372 -14 -14 -26 -28 -26 -33 0
-4 250 -8 556 -8 l557 0 -45 48 c-79 85 -175 243 -207 345 l-13 37 -299 0
c-276 0 -300 -1 -306 -17z"/>
<path d="M450 395 l0 -95 740 0 740 0 0 95 0 95 -740 0 -740 0 0 -95z"/>
</g>
</svg>
