<?xml version="1.0" standalone="no"?>
<!DOCTYPE svg PUBLIC "-//W3C//DTD SVG 20010904//EN"
 "http://www.w3.org/TR/2001/REC-SVG-20010904/DTD/svg10.dtd">
<svg version="1.0" xmlns="http://www.w3.org/2000/svg"
 width="512.000000pt" height="512.000000pt" viewBox="0 0 512.000000 512.000000"
 preserveAspectRatio="xMidYMid meet">

<g transform="translate(0.000000,512.000000) scale(0.100000,-0.100000)"
fill="#FFFFFF" stroke="none">
<path d="M3100 4904 c-203 -31 -421 -107 -555 -195 -211 -137 -427 -421 -566
-742 -102 -235 -164 -463 -194 -722 -78 -667 -343 -1199 -918 -1840 -118 -132
-444 -459 -605 -608 l-73 -67 3 -104 3 -104 125 105 c564 474 1011 957 1359
1467 44 66 81 117 81 114 0 -17 -88 -264 -126 -356 -82 -195 -192 -377 -320
-527 -228 -267 -755 -760 -1081 -1010 -48 -37 -52 -43 -53 -82 l0 -43 125 0
126 0 102 68 c206 138 527 319 616 347 13 4 -78 -87 -203 -201 l-228 -209 142
-3 142 -3 116 103 c159 140 526 502 682 673 568 622 950 1203 1075 1633 31
107 31 130 0 192 -14 27 -37 88 -52 137 -24 80 -27 102 -27 253 0 151 3 172
28 255 71 234 212 407 411 505 210 105 436 107 645 8 123 -59 229 -167 293
-298 26 -52 54 -122 62 -155 53 -210 -45 -440 -223 -523 -46 -22 -72 -27 -132
-27 -90 0 -146 24 -214 90 -42 40 -106 137 -106 161 0 8 143 74 163 74 4 0 15
-17 26 -38 60 -118 164 -134 248 -39 78 89 85 225 18 357 -50 99 -96 155 -169
202 -83 54 -169 78 -275 78 -165 0 -281 -49 -403 -171 -126 -126 -188 -285
-188 -481 0 -370 269 -685 662 -775 110 -25 348 -23 450 5 116 32 217 77 315
142 417 276 600 827 453 1360 -27 95 -112 273 -176 367 -227 332 -619 563
-1061 627 -137 20 -391 20 -523 0z m105 -259 c39 -8 106 -32 150 -54 136 -66
136 -66 -32 -67 -176 -1 -258 -19 -398 -89 -120 -59 -202 -120 -306 -225 -170
-173 -308 -422 -374 -678 -14 -53 -27 -98 -29 -100 -3 -2 -16 34 -31 80 -35
110 -43 231 -21 318 73 286 416 669 699 781 120 48 226 58 342 34z m1255 -722
c195 -208 253 -558 143 -855 -62 -166 -257 -299 -437 -297 -99 1 -103 9 -23
49 106 52 207 151 257 254 56 112 70 189 70 382 0 219 -28 357 -104 506 l-34
68 30 -18 c17 -9 61 -50 98 -89z m-1556 30 c-94 -96 -151 -175 -200 -278 -77
-158 -94 -272 -94 -627 0 -319 -25 -495 -103 -723 -55 -158 -73 -193 -155
-295 -103 -127 -398 -422 -497 -497 -107 -80 -116 -84 -76 -38 271 321 438
581 535 832 80 207 106 374 106 698 0 261 13 422 41 534 40 155 180 336 310
399 57 28 153 60 186 61 7 1 -17 -29 -53 -66z"/>
</g>
</svg>
