<?xml version="1.0" encoding="UTF-8"?>
<!DOCTYPE svg PUBLIC "-//W3C//DTD SVG 1.1//EN" "http://www.w3.org/Graphics/SVG/1.1/DTD/svg11.dtd">
<svg fill="#ffffff" xmlns="http://www.w3.org/2000/svg" version="1.1" width="225px" height="225px" style="shape-rendering:geometricPrecision; text-rendering:geometricPrecision; image-rendering:optimizeQuality; fill-rule:evenodd; clip-rule:evenodd" xmlns:xlink="http://www.w3.org/1999/xlink">
<g><path style="opacity:1" fill="#202631" d="M -0.5,-0.5 C 74.5,-0.5 149.5,-0.5 224.5,-0.5C 224.5,74.5 224.5,149.5 224.5,224.5C 149.5,224.5 74.5,224.5 -0.5,224.5C -0.5,149.5 -0.5,74.5 -0.5,-0.5 Z"/></g>
<g><path style="opacity:1" d="M 105.5,8.5 C 112.228,7.74125 117.895,9.74125 122.5,14.5C 118.098,25.5402 113.598,36.5402 109,47.5C 96.1661,58.7504 81.3328,62.9171 64.5,60C 52.5,50.6667 40.5,41.3333 28.5,32C 30.9195,27.2464 34.7528,24.413 40,23.5C 44.8791,25.2086 49.7124,26.7086 54.5,28C 58.8915,15.6425 67.5582,10.9758 80.5,14C 84.4908,15.078 88.3242,16.578 92,18.5C 96.1089,14.5464 100.609,11.2131 105.5,8.5 Z"/></g>
<g><path style="opacity:1" d="M 114.5,53.5 C 118.021,53.83 121.021,55.33 123.5,58C 115.714,66.6942 115.547,75.5275 123,84.5C 122.975,89.8466 124.142,94.8466 126.5,99.5C 123.743,103.809 122.909,108.475 124,113.5C 125.547,117.436 127.713,120.936 130.5,124C 129.922,125.811 129.422,127.645 129,129.5C 116.826,137.925 115.326,147.925 124.5,159.5C 123.811,161.444 123.311,163.444 123,165.5C 115.37,160.063 106.87,156.563 97.5,155C 88.5,154.667 79.5,154.333 70.5,154C 63.255,152.301 55.9217,151.135 48.5,150.5C 34.0113,128.323 33.8446,105.99 48,83.5C 51.4527,78.3788 55.2861,73.5455 59.5,69C 62.8255,68.8281 66.1589,68.9947 69.5,69.5C 61.6165,89.0962 61.6165,108.763 69.5,128.5C 70,128.833 70.5,129.167 71,129.5C 73.0466,128.391 75.2133,127.724 77.5,127.5C 74.3873,117.723 72.8873,107.723 73,97.5C 75.5876,101.676 78.4209,105.676 81.5,109.5C 83.6499,107.851 85.6499,106.018 87.5,104C 81.1036,96.8734 77.437,88.54 76.5,79C 76.3596,75.6153 77.3596,72.6153 79.5,70C 90.677,68.1635 101.01,64.1635 110.5,58C 112.041,56.6288 113.375,55.1288 114.5,53.5 Z"/></g>
<g><path style="opacity:1" d="M 152.5,54.5 C 165.041,53.702 177.375,54.8686 189.5,58C 196.625,60.2987 201.625,64.7987 204.5,71.5C 203.809,74.3535 202.476,76.8535 200.5,79C 198.246,80.3767 196.08,81.8767 194,83.5C 193.667,80.8333 193.333,78.1667 193,75.5C 188.549,78.2616 183.715,79.9283 178.5,80.5C 178.808,82.924 178.474,85.2573 177.5,87.5C 160.841,91.2791 145.174,88.7791 130.5,80C 125.248,75.8444 124.415,71.011 128,65.5C 135.335,59.7445 143.502,56.0778 152.5,54.5 Z"/></g>
<g><path style="opacity:1" d="M 206.5,84.5 C 208.99,85.1081 210.324,86.7748 210.5,89.5C 209.434,94.0791 206.934,97.7458 203,100.5C 202.333,96.1667 202.333,91.8333 203,87.5C 204.145,86.3636 205.312,85.3636 206.5,84.5 Z"/></g>
<g><path style="opacity:1" d="M 132.5,91.5 C 151.45,98.6872 170.617,99.3539 190,93.5C 190.499,97.4862 190.666,101.486 190.5,105.5C 178.204,107.887 165.87,108.053 153.5,106C 147.718,104.631 142.385,102.297 137.5,99C 134.8,97.1433 133.134,94.6433 132.5,91.5 Z"/></g>
<g><path style="opacity:1" d="M 132.5,106.5 C 149.51,115.544 167.51,118.211 186.5,114.5C 187.489,118.107 187.823,121.774 187.5,125.5C 171.262,128.148 155.596,126.315 140.5,120C 134.665,117.341 131.998,112.841 132.5,106.5 Z"/></g>
<g><path style="opacity:1" d="M 203.5,118.5 C 202.527,116.052 202.194,113.385 202.5,110.5C 204.435,109.19 206.435,107.857 208.5,106.5C 209.72,106.887 210.387,107.72 210.5,109C 209.504,113.161 207.171,116.328 203.5,118.5 Z"/></g>
<g><path style="opacity:1" fill="#202631" d="M 202.5,110.5 C 202.194,113.385 202.527,116.052 203.5,118.5C 203.44,119.043 203.107,119.376 202.5,119.5C 201.197,116.355 201.197,113.355 202.5,110.5 Z"/></g>
<g><path style="opacity:1" fill="#ffffff" d="M 211.5,122.5 C 216.473,124.812 217.64,128.479 215,133.5C 214,135.167 212.667,136.5 211,137.5C 210.222,132.416 210.389,127.416 211.5,122.5 Z"/></g>
<g><path style="opacity:1" fill="#ffffff" d="M 138.5,128.5 C 156.784,136.393 175.45,137.393 194.5,131.5C 195.492,135.783 195.826,140.116 195.5,144.5C 176.715,149.221 159.049,146.721 142.5,137C 139.679,134.859 138.346,132.025 138.5,128.5 Z"/></g>
<g><path style="opacity:1" fill="#ffffff" d="M 131.5,137.5 C 139.481,146.331 149.481,151.831 161.5,154C 166.823,154.499 172.156,154.666 177.5,154.5C 177.5,157.5 177.5,160.5 177.5,163.5C 162.025,165.364 147.358,162.864 133.5,156C 125.07,150.502 124.403,144.335 131.5,137.5 Z"/></g>
<g><path style="opacity:1" fill="#ffffff" d="M 199.5,151.5 C 200.552,151.351 201.552,151.517 202.5,152C 199.853,154.657 196.853,156.823 193.5,158.5C 192.548,156.955 192.215,155.288 192.5,153.5C 195.067,153.279 197.401,152.612 199.5,151.5 Z"/></g>
<g><path style="opacity:1" fill="#ffffff" d="M 46.5,160.5 C 51.8437,160.334 57.1771,160.501 62.5,161C 78.0349,163.1 80.8682,169.933 71,181.5C 70.6667,178.167 70.3333,174.833 70,171.5C 66.8043,175.848 62.6377,178.848 57.5,180.5C 56.8333,183.833 56.1667,187.167 55.5,190.5C 44.8168,194.288 33.8168,195.788 22.5,195C 7.85166,192.082 5.18499,185.082 14.5,174C 24.1436,166.848 34.8103,162.348 46.5,160.5 Z"/></g>
<g><path style="opacity:1" fill="#ffffff" d="M 203.5,174.5 C 202.518,171.038 202.185,167.371 202.5,163.5C 206.106,157.992 208.773,158.325 210.5,164.5C 209.73,168.935 207.397,172.269 203.5,174.5 Z"/></g>
<g><path style="opacity:1" fill="#ffffff" d="M 83.5,162.5 C 93.9121,162.77 103.912,164.936 113.5,169C 124.317,175.942 123.983,182.442 112.5,188.5C 111.833,185.833 111.167,183.167 110.5,180.5C 107.983,181.895 105.316,182.895 102.5,183.5C 97.3231,180.746 91.9897,178.246 86.5,176C 85.8976,171.414 84.8976,166.914 83.5,162.5 Z"/></g>
<g><path style="opacity:1" fill="#ffffff" d="M 202.5,163.5 C 202.185,167.371 202.518,171.038 203.5,174.5C 203.44,175.043 203.107,175.376 202.5,175.5C 201.191,171.351 201.191,167.351 202.5,163.5 Z"/></g>
<g><path style="opacity:1" fill="#ffffff" d="M 132.5,165.5 C 150.024,173.076 168.024,174.41 186.5,169.5C 187.491,173.445 187.824,177.445 187.5,181.5C 173.971,183.476 160.638,182.643 147.5,179C 142.221,177.384 137.721,174.551 134,170.5C 132.991,168.975 132.491,167.308 132.5,165.5 Z"/></g>
<g><path style="opacity:1" fill="#ffffff" d="M 132.5,181.5 C 149.789,190.992 168.123,193.658 187.5,189.5C 187.5,193.5 187.5,197.5 187.5,201.5C 171.262,204.148 155.596,202.315 140.5,196C 134.303,193.105 131.636,188.272 132.5,181.5 Z"/></g>
<g><path style="opacity:1" fill="#ffffff" d="M 203.5,194.5 C 202.523,191.713 202.19,188.713 202.5,185.5C 209.291,179.312 211.458,180.646 209,189.5C 207.296,191.373 205.463,193.04 203.5,194.5 Z"/></g>
<g><path style="opacity:1" fill="#ffffff" d="M 95.5,207.5 C 95.8076,205.076 95.4742,202.743 94.5,200.5C 93.8933,200.624 93.56,200.957 93.5,201.5C 89.3661,203.283 85.0328,204.283 80.5,204.5C 80.5,207.833 80.5,211.167 80.5,214.5C 66.8083,217.257 53.8083,215.423 41.5,209C 39.4148,207.959 37.7481,206.459 36.5,204.5C 53.8489,202.285 68.8489,195.285 81.5,183.5C 88.8778,185.267 95.0445,188.933 100,194.5C 101.96,199.935 100.46,204.268 95.5,207.5 Z"/></g>
<g><path style="opacity:1" fill="#202631" d="M 202.5,185.5 C 202.19,188.713 202.523,191.713 203.5,194.5C 203.44,195.043 203.107,195.376 202.5,195.5C 201.194,192.02 201.194,188.687 202.5,185.5 Z"/></g>
<g><path style="opacity:1" fill="#202631" d="M 93.5,201.5 C 93.56,200.957 93.8933,200.624 94.5,200.5C 95.4742,202.743 95.8076,205.076 95.5,207.5C 94.7227,206.118 94.056,204.118 93.5,201.5 Z"/></g>
</svg>
