<?xml version="1.0" encoding="UTF-8"?>
<!DOCTYPE svg PUBLIC "-//W3C//DTD SVG 1.1//EN" "http://www.w3.org/Graphics/SVG/1.1/DTD/svg11.dtd">
<svg xmlns="http://www.w3.org/2000/svg" version="1.1" width="225px" height="225px" style="shape-rendering:geometricPrecision; text-rendering:geometricPrecision; image-rendering:optimizeQuality; fill-rule:evenodd; clip-rule:evenodd" xmlns:xlink="http://www.w3.org/1999/xlink">
<g><path style="opacity:1" fill="#202631" d="M -0.5,-0.5 C 74.5,-0.5 149.5,-0.5 224.5,-0.5C 224.5,74.5 224.5,149.5 224.5,224.5C 149.5,224.5 74.5,224.5 -0.5,224.5C -0.5,149.5 -0.5,74.5 -0.5,-0.5 Z"/></g>
<g><path style="opacity:1" fill="#ffffff" d="M 134.5,16.5 C 138.07,17.2456 141.404,18.5789 144.5,20.5C 142.5,24.5 140.5,28.5 138.5,32.5C 134.642,33.4325 130.975,32.7658 127.5,30.5C 130.372,26.0901 132.705,21.4235 134.5,16.5 Z"/></g>
<g><path style="opacity:1" fill="#ffffff" d="M 164.5,25.5 C 168.63,26.6973 172.63,28.1973 176.5,30C 173.918,35.0305 170.751,39.5305 167,43.5C 163.492,42.6825 160.325,41.3492 157.5,39.5C 160.372,35.0901 162.705,30.4235 164.5,25.5 Z"/></g>
<g><path style="opacity:1" fill="#ffffff" d="M 109.5,9.5 C 111.655,9.37201 113.655,9.87201 115.5,11C 112.562,16.2095 109.895,21.5428 107.5,27C 85.4854,33.9504 63.4854,40.7837 41.5,47.5C 40.7409,70.6496 42.2409,93.6496 46,116.5C 49.7538,138.493 58.2538,158.326 71.5,176C 69.8894,180.149 68.7228,184.316 68,188.5C 70.3414,185.329 72.8414,182.329 75.5,179.5C 86.0209,188.762 98.0209,195.429 111.5,199.5C 140.249,190.586 159.749,171.919 170,143.5C 175.651,126.283 178.984,108.616 180,90.5C 180.999,79.5214 181.666,68.5214 182,57.5C 186.585,49.9953 191.418,42.662 196.5,35.5C 198.742,71.415 195.242,106.748 186,141.5C 177.356,172.462 158.856,195.296 130.5,210C 124.239,212.88 117.739,215.047 111,216.5C 73.788,204.286 49.788,179.286 39,141.5C 29.3158,106.808 25.4824,71.4748 27.5,35.5C 55.1675,27.3863 82.5009,18.7196 109.5,9.5 Z"/></g>
<g><path style="opacity:1" fill="#ffffff" d="M 99.5,37.5 C 100.675,37.281 101.675,37.6143 102.5,38.5C 86.4763,72.7344 73.3096,108.068 63,144.5C 53.3438,115.3 49.0105,85.3 50,54.5C 66.6933,49.1032 83.1933,43.4365 99.5,37.5 Z"/></g>
<g><path style="opacity:1" fill="#ffffff" d="M 123.5,38.5 C 126.923,39.3634 130.256,40.5301 133.5,42C 112.394,82.3759 93.061,123.543 75.5,165.5C 72.4544,162.615 69.9544,159.282 68,155.5C 66.0863,152.702 65.0863,149.702 65,146.5C 84.3275,110.357 103.827,74.3568 123.5,38.5 Z"/></g>
<g><path style="opacity:1" fill="#ffffff" d="M 152.5,48.5 C 156.441,48.9 160.107,50.0666 163.5,52C 140.443,91.2816 120.443,132.115 103.5,174.5C 103.846,175.696 104.346,175.696 105,174.5C 126.94,140.229 149.274,106.229 172,72.5C 172.475,100.987 167.142,128.32 156,154.5C 146.049,172.782 131.049,184.782 111,190.5C 99.1147,186.813 88.9481,180.48 80.5,171.5C 106.948,132.024 130.948,91.0239 152.5,48.5 Z"/></g>
</svg>
