<?xml version="1.0" standalone="no"?>
<!DOCTYPE svg PUBLIC "-//W3C//DTD SVG 20010904//EN"
 "http://www.w3.org/TR/2001/REC-SVG-20010904/DTD/svg10.dtd">
<svg version="1.0" xmlns="http://www.w3.org/2000/svg"
 width="225.000000pt" height="225.000000pt" viewBox="0 0 225.000000 225.000000"
 preserveAspectRatio="xMidYMid meet">

<g transform="translate(0.000000,225.000000) scale(0.100000,-0.100000)"
fill="#ffffff" stroke="none">
<path d="M1140 1864 c71 -164 128 -299 127 -300 -1 -1 -49 60 -107 137 -57 76
-105 139 -106 139 -2 0 125 -335 149 -393 19 -44 22 -41 -73 -57 -36 -6 -88
-15 -117 -21 l-51 -10 34 -101 c19 -56 34 -107 34 -112 0 -6 -88 122 -196 284
-108 162 -194 288 -191 280 7 -21 328 -793 334 -802 2 -5 2 -8 -1 -8 -3 0 -55
74 -117 165 -61 91 -113 164 -115 162 -2 -2 14 -70 35 -153 21 -82 41 -161 45
-175 5 -22 14 -28 63 -38 78 -17 169 -67 205 -112 l29 -37 47 47 c49 49 123
89 179 98 18 3 33 9 33 13 0 4 -38 76 -85 160 -47 85 -82 157 -78 160 5 4 69
22 143 40 74 18 136 34 137 35 2 1 -26 57 -62 126 -35 68 -65 128 -65 132 0 5
48 -33 106 -85 58 -51 114 -99 125 -107 15 -11 -553 794 -581 823 -5 5 49
-126 120 -290z"/>
<path d="M300 738 c-46 -32 -85 -60 -87 -61 -2 -2 203 -77 455 -165 l459 -162
443 156 c244 85 450 159 457 163 9 4 -16 27 -74 67 l-88 60 -250 -6 c-233 -6
-254 -8 -303 -30 -97 -42 -158 -140 -178 -285 l-7 -50 -16 80 c-29 143 -89
224 -190 260 -45 17 -87 19 -414 28 l-123 4 -84 -59z"/>
<path d="M102 582 c-6 -20 -8 -39 -4 -43 4 -3 193 -70 420 -149 l413 -143 -7
-26 c-13 -51 -11 -55 41 -70 108 -30 376 -9 367 29 -17 70 -55 50 402 209 228
79 420 147 426 151 13 8 -7 70 -23 70 -16 0 -880 -302 -891 -311 -5 -4 -4 -21
2 -38 10 -29 9 -31 -16 -38 -33 -10 -191 -10 -214 -1 -15 6 -16 12 -6 39 8 24
8 33 -2 39 -7 4 -171 63 -364 130 -193 68 -392 137 -442 155 l-91 33 -11 -36z"/>
</g>
</svg>
