<?xml version="1.0" standalone="no"?>
<!DOCTYPE svg PUBLIC "-//W3C//DTD SVG 20010904//EN"
 "http://www.w3.org/TR/2001/REC-SVG-20010904/DTD/svg10.dtd">
<svg version="1.0" xmlns="http://www.w3.org/2000/svg"
 width="225.000000pt" height="225.000000pt" viewBox="0 0 225.000000 225.000000"
 preserveAspectRatio="xMidYMid meet">

<g transform="translate(0.000000,225.000000) scale(0.100000,-0.100000)"
fill="#ffffff" stroke="none">
<path d="M938 2150 c-126 -22 -253 -76 -347 -146 l-50 -37 32 -46 c52 -73 216
-232 300 -289 284 -195 605 -250 821 -140 63 32 139 111 170 177 l29 59 -29
51 c-94 164 -256 289 -449 347 -80 24 -109 27 -260 30 -93 1 -191 -1 -217 -6z"/>
<path d="M432 1842 c-106 -151 -172 -347 -188 -555 l-6 -82 48 -23 c158 -77
298 -204 358 -323 20 -40 36 -77 36 -84 0 -20 78 -61 182 -96 82 -29 109 -33
233 -37 163 -5 264 14 390 72 l73 34 41 88 c35 74 55 101 129 173 62 62 115
102 184 141 l97 55 1 40 c0 62 -28 233 -51 309 l-20 68 -28 -43 c-32 -49 -88
-105 -141 -141 l-35 -23 -1 -85 c0 -68 -5 -94 -23 -128 -34 -65 -96 -128 -157
-158 -45 -22 -64 -26 -118 -22 -75 5 -121 34 -166 105 -30 47 -60 156 -60 217
0 34 -1 35 -67 57 -230 75 -485 263 -633 467 -13 17 -27 32 -30 32 -4 0 -25
-26 -48 -58z m255 -406 c50 -77 138 -116 263 -116 74 0 80 -2 80 -20 0 -51
-54 -121 -120 -156 -54 -28 -171 -26 -233 5 -97 47 -139 150 -97 236 19 40 61
85 79 85 3 0 16 -16 28 -34z m547 -511 c19 -55 36 -113 40 -128 7 -28 6 -28
-31 -20 -49 10 -147 10 -200 0 l-42 -9 19 71 c23 80 56 170 95 256 l27 60 30
-65 c16 -36 44 -110 62 -165z"/>
<path d="M705 586 c-3 -34 -9 -73 -12 -88 -5 -24 0 -29 47 -53 28 -14 62 -30
76 -35 l24 -10 0 99 0 99 -27 7 c-15 3 -43 14 -64 24 l-37 18 -7 -61z"/>
<path d="M1483 620 l-63 -25 0 -98 0 -98 33 16 c82 41 117 60 117 65 -1 3 -6
41 -13 85 l-12 80 -62 -25z"/>
<path d="M1280 564 c-8 -1 -36 -6 -62 -9 l-48 -6 0 -98 0 -97 68 8 c37 4 73
10 80 13 8 3 12 33 12 100 0 101 0 100 -50 89z"/>
<path d="M646 356 c-7 -18 -26 -52 -41 -76 l-27 -43 23 -18 c131 -100 404
-156 641 -131 144 15 251 42 342 87 116 57 113 51 66 131 -22 37 -41 73 -43
79 -2 5 -39 -7 -83 -27 -145 -68 -218 -83 -399 -82 -180 0 -254 15 -390 78
l-75 35 -14 -33z"/>
</g>
</svg>
