<?xml version="1.0" standalone="no"?>
<!DOCTYPE svg PUBLIC "-//W3C//DTD SVG 20010904//EN"
 "http://www.w3.org/TR/2001/REC-SVG-20010904/DTD/svg10.dtd">
<svg version="1.0" xmlns="http://www.w3.org/2000/svg"
 width="512.000000pt" height="512.000000pt" viewBox="0 0 512.000000 512.000000"
 preserveAspectRatio="xMidYMid meet">

<g transform="translate(0.000000,512.000000) scale(0.100000,-0.100000)"
fill="#ffffff" stroke="none">
<path d="M3190 4426 c-44 -24 -264 -94 -362 -115 -336 -73 -584 -45 -935 106
-10 4 -13 -38 -13 -190 l0 -196 56 -25 c373 -171 787 -177 1197 -17 l107 43 0
204 c0 218 0 217 -50 190z"/>
<path d="M1213 4373 l-72 -4 -6 -52 c-15 -118 33 -324 109 -474 49 -97 134
-215 149 -207 16 10 113 85 155 121 l32 28 -26 90 c-36 124 -73 305 -80 397
-4 42 -10 82 -15 90 -9 14 -109 18 -246 11z"/>
<path d="M3678 4373 c-13 -3 -18 -15 -18 -40 0 -87 -52 -346 -105 -529 -5 -16
8 -32 67 -80 40 -34 85 -68 99 -77 l25 -17 45 63 c134 184 199 372 199 575 l0
99 -107 6 c-114 7 -178 7 -205 0z"/>
<path d="M855 4315 c-103 -30 -179 -60 -231 -90 l-40 -24 3 -63 c15 -248 117
-486 286 -667 l47 -51 83 26 c45 15 112 40 149 56 l67 30 -53 77 c-138 197
-216 425 -220 638 0 51 -3 93 -6 92 -3 0 -41 -11 -85 -24z"/>
<path d="M4177 4212 c-4 -97 -11 -148 -31 -216 -49 -165 -116 -300 -204 -416
l-34 -45 79 -37 c43 -20 111 -46 151 -57 l73 -20 42 46 c164 178 269 415 284
643 l6 95 -74 36 c-65 33 -184 74 -260 93 l-26 6 -6 -128z"/>
<path d="M353 3993 c-90 -129 -139 -277 -150 -458 l-6 -101 89 -17 c109 -22
326 -41 371 -32 l33 6 -54 72 c-107 144 -191 341 -218 511 -7 42 -15 76 -19
76 -3 0 -24 -26 -46 -57z"/>
<path d="M4708 3962 c-35 -179 -118 -372 -217 -502 l-49 -65 24 -9 c33 -11
263 8 378 30 l89 18 -7 93 c-11 154 -47 295 -102 392 -27 49 -86 130 -94 131
-3 0 -13 -39 -22 -88z"/>
<path d="M3287 3850 c-168 -75 -410 -142 -566 -156 l-71 -7 0 -1068 c0 -588 2
-1069 5 -1069 16 0 178 70 279 121 705 353 1055 974 906 1607 l-21 90 -82 47
c-100 58 -238 160 -331 247 l-70 64 23 78 c13 42 21 79 19 81 -2 2 -43 -14
-91 -35z"/>
<path d="M1750 3872 c0 -5 9 -35 20 -67 11 -32 20 -63 20 -70 0 -18 -191 -183
-290 -251 -50 -34 -122 -78 -160 -98 -63 -33 -70 -41 -81 -79 -41 -151 -51
-367 -24 -523 78 -443 412 -847 912 -1102 118 -60 283 -132 302 -132 8 0 11
325 11 1069 l0 1068 -76 7 c-158 13 -381 75 -557 155 -76 34 -77 35 -77 23z"/>
<path d="M1486 1778 l-79 -72 39 -34 c140 -120 476 -311 655 -371 l94 -31 83
81 c46 44 82 82 80 84 -5 5 -762 403 -778 410 -10 3 -43 -20 -94 -67z"/>
<path d="M3156 1645 c-214 -113 -391 -207 -394 -210 -2 -2 33 -40 79 -85 97
-94 90 -93 242 -34 175 67 481 245 606 351 l34 29 -83 77 c-46 42 -86 77 -89
77 -3 0 -181 -92 -395 -205z"/>
<path d="M1208 1473 c-76 -103 -102 -142 -97 -147 180 -136 313 -221 468 -300
118 -60 316 -136 354 -136 13 0 132 192 132 213 0 5 -48 28 -106 51 -192 77
-394 194 -586 337 -50 38 -93 69 -95 69 -3 0 -34 -39 -70 -87z"/>
<path d="M3785 1504 c-183 -142 -455 -297 -640 -365 -49 -18 -92 -34 -94 -36
-2 -1 10 -24 27 -50 17 -26 45 -76 63 -110 37 -72 22 -71 187 -17 176 58 418
189 608 329 41 30 74 60 74 66 0 14 -91 145 -133 193 l-32 36 -60 -46z"/>
<path d="M926 1029 c-43 -77 -79 -146 -80 -153 -3 -34 269 -238 413 -310 142
-72 311 -124 469 -144 l62 -9 10 41 c19 75 51 180 65 217 l14 36 -62 18 c-227
68 -509 216 -737 390 -30 23 -59 44 -65 47 -5 3 -45 -57 -89 -133z"/>
<path d="M4080 1129 c-54 -47 -244 -171 -356 -234 -110 -61 -299 -141 -406
-171 -38 -10 -68 -23 -68 -27 0 -5 13 -52 29 -105 17 -54 35 -115 40 -138 l11
-41 67 9 c288 36 609 191 832 401 46 43 50 50 40 70 -20 37 -151 267 -153 267
0 -1 -17 -14 -36 -31z"/>
</g>
</svg>
