<?xml version="1.0" standalone="no"?>
<!DOCTYPE svg PUBLIC "-//W3C//DTD SVG 20010904//EN"
 "http://www.w3.org/TR/2001/REC-SVG-20010904/DTD/svg10.dtd">
<svg version="1.0" xmlns="http://www.w3.org/2000/svg"
 width="512.000000pt" height="512.000000pt" viewBox="0 0 512.000000 512.000000"
 preserveAspectRatio="xMidYMid meet">

<g transform="translate(0.000000,512.000000) scale(0.100000,-0.100000)"
fill="#ffffff" stroke="none">
<path d="M2470 4771 c-145 -47 -288 -149 -496 -356 -164 -163 -258 -271 -413
-475 -97 -127 -251 -349 -251 -362 0 -4 110 -91 245 -192 l245 -183 227 -57
c126 -31 236 -59 245 -62 13 -4 21 5 32 30 l15 35 78 -26 c43 -14 80 -28 83
-30 2 -2 -29 -105 -70 -228 l-74 -224 109 -275 c61 -152 112 -276 115 -276 3
0 54 124 115 276 l109 275 -74 224 c-41 123 -72 226 -70 228 3 2 40 16 83 30
l78 26 15 -35 c11 -25 19 -34 32 -30 9 3 119 31 245 62 l227 57 245 183 c135
101 245 188 245 192 0 13 -154 235 -251 362 -153 201 -249 311 -414 475 -210
209 -360 316 -504 359 -68 20 -102 20 -171 -3z m-448 -1152 c199 -115 367
-214 372 -219 9 -9 -71 -150 -85 -150 -11 0 -719 408 -738 425 -11 11 -6 25
28 84 23 39 46 71 50 71 5 0 173 -95 373 -211z m1498 140 c27 -46 39 -74 32
-81 -5 -5 -175 -105 -378 -223 l-369 -213 -44 76 -44 76 23 15 c55 37 716 419
726 420 7 1 31 -31 54 -70z"/>
<path d="M280 3538 c288 -318 502 -632 611 -894 23 -55 42 -100 43 -101 1 -2
21 23 43 55 23 31 73 91 111 133 l71 76 -25 41 c-47 79 -85 220 -97 357 -2 25
-19 43 -112 113 -210 160 -390 251 -594 303 -62 16 -122 29 -133 29 -14 0 6
-29 82 -112z"/>
<path d="M4783 3620 c-199 -51 -380 -144 -588 -302 -93 -70 -110 -88 -112
-113 -12 -136 -53 -286 -101 -364 l-21 -34 71 -76 c38 -42 88 -102 111 -133
22 -32 42 -57 43 -55 1 1 16 38 33 82 100 252 324 582 611 901 128 142 129
140 -47 94z"/>
<path d="M1210 3368 c0 -77 18 -223 37 -298 24 -98 57 -164 109 -220 l48 -51
-91 -92 c-158 -161 -230 -257 -253 -338 l-8 -27 405 -152 c223 -84 408 -148
412 -144 4 5 30 38 58 74 29 36 96 109 150 162 l98 98 -3 -229 -3 -228 148
-56 c81 -30 150 -53 152 -51 2 1 -70 186 -159 409 l-162 405 -257 0 -257 0
-64 -65 -64 -65 -63 62 -63 62 55 56 55 56 -68 288 -68 287 -72 55 -72 55 0
-53z"/>
<path d="M3835 3364 l-69 -53 -68 -287 -68 -288 55 -56 55 -56 -63 -62 -63
-62 -64 65 -64 65 -257 0 -257 0 -162 -405 c-89 -223 -161 -408 -159 -409 2
-2 71 21 152 51 l148 56 -3 228 -3 229 98 -98 c54 -53 121 -126 150 -162 28
-36 54 -69 58 -74 4 -4 189 60 412 144 l405 152 -8 27 c-23 80 -87 167 -249
333 l-94 98 47 50 c52 56 85 122 109 220 20 79 40 251 35 306 l-3 41 -70 -53z"/>
<path d="M1580 3134 c1 -5 18 -79 38 -164 l38 -155 87 -3 87 -3 0 100 0 100
-37 10 c-21 6 -43 11 -49 11 -10 0 -95 58 -151 103 -7 5 -13 6 -13 1z"/>
<path d="M3461 3084 c-40 -30 -78 -54 -85 -54 -6 0 -28 -5 -48 -11 l-38 -10 0
-100 0 -100 87 3 87 3 38 160 c20 87 36 160 35 161 -1 1 -35 -22 -76 -52z"/>
<path d="M2010 2885 l0 -76 97 3 96 3 15 43 c8 24 12 46 9 48 -6 7 -186 54
-204 54 -9 0 -13 -22 -13 -75z"/>
<path d="M2987 2935 c-49 -13 -91 -25 -94 -28 -3 -3 1 -25 9 -49 l15 -43 96
-3 97 -3 0 76 c0 88 8 84 -123 50z"/>
<path d="M1056 2303 c106 -445 437 -1031 841 -1493 183 -210 356 -356 510
-432 76 -38 95 -43 153 -43 58 0 77 5 151 42 407 201 987 952 1252 1618 53
131 112 324 102 333 -2 2 -111 -157 -243 -355 l-239 -358 -504 -420 c-277
-230 -511 -419 -519 -419 -8 0 -242 189 -519 419 l-504 420 -238 358 c-132
196 -241 357 -244 357 -3 0 -2 -12 1 -27z"/>
<path d="M1520 1966 c0 -13 153 -235 165 -239 7 -3 24 22 45 68 17 41 32 77
32 81 -1 11 -242 101 -242 90z"/>
<path d="M3470 1926 c-63 -24 -114 -47 -113 -50 0 -4 16 -40 33 -81 21 -46 38
-71 45 -68 12 4 165 226 165 238 0 9 -12 5 -130 -39z"/>
<path d="M1968 1868 c-43 -65 -108 -219 -108 -254 0 -13 178 -140 185 -132 2
2 -5 41 -16 88 -10 47 -23 137 -30 200 -6 63 -13 116 -14 118 -1 1 -9 -8 -17
-20z"/>
<path d="M3121 1774 c-6 -65 -20 -157 -30 -204 -11 -47 -18 -86 -16 -88 7 -8
185 119 185 132 0 37 -75 210 -113 260 -12 17 -15 6 -26 -100z"/>
<path d="M2184 1703 c2 -10 8 -38 11 -63 22 -140 163 -471 226 -529 19 -17 37
-31 42 -31 4 0 7 121 7 269 l0 268 -137 52 c-76 28 -142 51 -146 51 -5 0 -6
-8 -3 -17z"/>
<path d="M2783 1668 l-133 -51 0 -268 c0 -148 3 -269 8 -269 61 3 239 375 267
560 3 25 9 53 11 63 7 25 -5 22 -153 -35z"/>
</g>
</svg>
